<svg width="40" height="40" viewBox="0 0 40 40" fill="none" xmlns="http://www.w3.org/2000/svg">
<path d="M10.8526 33.8157C12.5113 33.8157 13.8703 35.2036 13.8703 36.9181C13.8703 38.6121 12.5113 40 10.8526 40C9.17393 40 7.81499 38.6121 7.81499 36.9181C7.81499 35.2036 9.17393 33.8157 10.8526 33.8157ZM33.3351 33.8157C34.9938 33.8157 36.3528 35.2036 36.3528 36.9181C36.3528 38.6121 34.9938 40 33.3351 40C31.6564 40 30.2975 38.6121 30.2975 36.9181C30.2975 35.2036 31.6564 33.8157 33.3351 33.8157ZM1.55645 0.000238979L1.76011 0.0174766L6.5264 0.750202C7.20587 0.874704 7.70548 1.44415 7.76543 2.13809L8.14514 6.70997C8.20509 7.36514 8.72468 7.85499 9.36419 7.85499H36.3532C37.5722 7.85499 38.3716 8.2836 39.171 9.22247C39.9703 10.1613 40.1102 11.5084 39.9304 12.731L38.0318 26.1201C37.6721 28.6938 35.5138 30.5899 32.9758 30.5899H11.1728C8.51485 30.5899 6.31656 28.5101 6.09673 25.8159L4.25817 3.56681L1.24052 3.03614C0.441141 2.89327 -0.118423 2.09727 0.0214676 1.28087C0.161359 0.44609 0.940751 -0.107025 1.76011 0.0174766L1.55645 0.000238979ZM29.7783 15.4047H24.2426C23.4032 15.4047 22.7438 16.0782 22.7438 16.9355C22.7438 17.7723 23.4032 18.4662 24.2426 18.4662H29.7783C30.6176 18.4662 31.2771 17.7723 31.2771 16.9355C31.2771 16.0782 30.6176 15.4047 29.7783 15.4047Z" fill="white"/>
</svg>
