<svg width="40" height="40" viewBox="0 0 40 40" fill="none" xmlns="http://www.w3.org/2000/svg">
<path d="M14.5075 18.5854L14.5064 18.5864C14.1337 18.9591 13.92 19.4659 13.92 20C13.92 20.5341 14.1337 21.0409 14.5064 21.4136L14.5075 21.4146L21.4814 28.3485C21.8659 28.7562 22.3809 28.94 22.88 28.94C23.4019 28.94 23.9125 28.7546 24.3136 28.3536L24.3136 28.3536L24.3195 28.3475C25.0836 27.557 25.0931 26.3022 24.2904 25.5233L18.7483 20L24.2904 14.4767C25.0898 13.7008 25.0889 12.4218 24.3136 11.6464C23.5229 10.8558 22.2642 10.8458 21.4841 11.6488L14.5075 18.5854ZM0.5 20C0.5 9.23761 9.25396 0.50185 19.9966 0.5L20.5492 0.507594C31.0593 0.79858 39.5 9.41982 39.5 20C39.5 30.7442 30.7635 39.5 20 39.5C9.25614 39.5 0.5 30.7439 0.5 20Z" fill="black" stroke="#FEC9D1"/>
</svg>
